<svg xmlns="http://www.w3.org/2000/svg" viewBox="0 0 1000 640" width="1000" height="640" font-family="Arial, sans-serif">

  <!-- Background -->
  <rect width="1000" height="640" fill="#f5f2ed"/>

  <!-- Title -->
  <text x="500" y="30" text-anchor="middle" font-size="17" font-weight="bold" fill="#222">VARJUALUNE ALT. 2 – KÜLGVAADE</text>
  <text x="500" y="48" text-anchor="middle" font-size="11" fill="#555">Pikkus 8,50 m | Vasak räästas 3,27 m | Parem räästas 2,24 m | Harjakõrgus 4,25 m | Katuse kalle 21° | Katuse üleulatumine 0,30 m</text>

  <!--
    Scale: 82px/m. Ground y=470.
    LENGTH 8.50m = 697px. Outer front x=172 w=16, outer rear x=869 w=16.
    Mid posts: x=404 x=637 (same spacing as original, 2.63m apart)

    LEFT SIDE (WoMo side): Eave = 3.27m = 268px → y_eave_L = 470-268 = 202
    RIGHT SIDE (Jeep side): Eave = 2.24m = 184px → y_eave_R = 470-184 = 286
    Ridge: 4.25m = 349px → y_ridge = 470-349 = 121

    Both side views shown stacked:
      Top:    LEFT side view (WoMo side, tall posts 3.27m) – upper half of drawing
      Bottom: RIGHT side view (Jeep side, short posts 2.24m) – lower half

    We'll draw the left side view only (same as original kylgvaade concept) and annotate
    that the right side has a different (lower) eave.
    Roof band on left side: from y=202 (eave) to y=121 (ridge) = 81px = 0.98m visible height
    This shows the LEFT slope of the asymmetric roof (the shorter/steeper side).
  -->

  <!-- Ground -->
  <rect x="100" y="470" width="840" height="15" fill="#c8b89a"/>
  <line x1="100" y1="470" x2="940" y2="470" stroke="#888" stroke-width="1.5"/>

  <!-- === LEFT SIDE VIEW (WoMo side) === -->
  <!-- Posts at 3.27m = 202 y_top -->
  <rect x="172" y="202" width="16" height="268" fill="#8B6914" stroke="#5a4010" stroke-width="1.5"/>
  <rect x="404" y="202" width="16" height="268" fill="#8B6914" stroke="#5a4010" stroke-width="1.2"/>
  <rect x="637" y="202" width="16" height="268" fill="#8B6914" stroke="#5a4010" stroke-width="1.2"/>
  <rect x="853" y="202" width="16" height="268" fill="#8B6914" stroke="#5a4010" stroke-width="1.5"/>

  <!-- Trauf beam (left side) at y=202 -->
  <rect x="172" y="196" width="697" height="9" fill="#a07820" stroke="#5a4010" stroke-width="1"/>

  <!-- Kopfbänder along length (left side, matching original kylgvaade) -->
  <line x1="188" y1="268" x2="254" y2="202" stroke="#7a5028" stroke-width="10" stroke-linecap="round"/>
  <line x1="404" y1="268" x2="338" y2="202" stroke="#7a5028" stroke-width="10" stroke-linecap="round"/>
  <line x1="420" y1="268" x2="486" y2="202" stroke="#7a5028" stroke-width="10" stroke-linecap="round"/>
  <line x1="637" y1="268" x2="571" y2="202" stroke="#7a5028" stroke-width="10" stroke-linecap="round"/>
  <line x1="653" y1="268" x2="719" y2="202" stroke="#7a5028" stroke-width="10" stroke-linecap="round"/>
  <line x1="853" y1="268" x2="787" y2="202" stroke="#7a5028" stroke-width="10" stroke-linecap="round"/>

  <!-- ROOF: left slope visible from left side.
    Overhang 0.30m=25px front and rear.
    Left slope: from eave (y=202) rising to ridge (y=121).
    From left side view, the visible roof surface spans from y=202 (left eave)
    to y=121 (ridge, 5.25m away in the depth / X direction, but shown projected).
    The roof rectangle runs the full length + overhangs.
  -->
  <!-- Full roof block: ridge at top (y=121), left eave at bottom-left of block, right eave lower (not shown from this side) -->
  <!-- Left slope roof visible surface (from left side view) -->
  <rect x="147" y="121" width="747" height="81" fill="#b03020" stroke="#7a1a08" stroke-width="1.5"/>
  <!-- Upper ridge line -->
  <line x1="147" y1="121" x2="894" y2="121" stroke="#7a1a08" stroke-width="2"/>

  <!-- Annotation: right side eave is at 2.24m (not visible from this view) -->
  <rect x="500" y="58" width="380" height="42" rx="5" fill="#fff8e0" stroke="#cc8800" stroke-width="1.2"/>
  <text x="690" y="74" text-anchor="middle" font-size="10" fill="#884400" font-weight="bold">Seitenansicht: linke Seite (Wohnmobil)</text>
  <text x="690" y="91" text-anchor="middle" font-size="9.5" fill="#884400">Rechte Seite (Jeep): Traufe bei 2,24 m – dort tiefer hängend</text>

  <!-- === DIMENSION LINES === -->

  <!-- Length 8.50m -->
  <line x1="172" y1="510" x2="869" y2="510" stroke="#333" stroke-width="1"/>
  <line x1="172" y1="503" x2="172" y2="517" stroke="#333" stroke-width="1.5"/>
  <line x1="869" y1="503" x2="869" y2="517" stroke="#333" stroke-width="1.5"/>
  <text x="520" y="527" text-anchor="middle" font-size="12" font-weight="bold" fill="#333">8,50 m (välisküljest välisküljeni)</text>

  <!-- Total with overhang -->
  <line x1="147" y1="492" x2="894" y2="492" stroke="#555" stroke-width="1"/>
  <line x1="147" y1="485" x2="147" y2="499" stroke="#555" stroke-width="1.5"/>
  <line x1="894" y1="485" x2="894" y2="499" stroke="#555" stroke-width="1.5"/>
  <text x="520" y="508" text-anchor="middle" font-size="11" fill="#555">ca. 9,10 m (koos üleulatumisega)</text>

  <!-- Overhang dims -->
  <line x1="147" y1="455" x2="172" y2="455" stroke="#888" stroke-width="0.8"/>
  <line x1="147" y1="449" x2="147" y2="461" stroke="#888" stroke-width="1"/>
  <line x1="172" y1="449" x2="172" y2="461" stroke="#888" stroke-width="1"/>
  <text x="159" y="447" text-anchor="middle" font-size="9" fill="#888">0,30 m</text>
  <line x1="869" y1="455" x2="894" y2="455" stroke="#888" stroke-width="0.8"/>
  <line x1="869" y1="449" x2="869" y2="461" stroke="#888" stroke-width="1"/>
  <line x1="894" y1="449" x2="894" y2="461" stroke="#888" stroke-width="1"/>
  <text x="881" y="447" text-anchor="middle" font-size="9" fill="#888">0,30 m</text>

  <!-- Left eave height (vasak räästas 3.27m) -->
  <line x1="108" y1="202" x2="108" y2="470" stroke="#b03020" stroke-width="1"/>
  <line x1="101" y1="202" x2="115" y2="202" stroke="#b03020" stroke-width="1.5"/>
  <line x1="101" y1="470" x2="115" y2="470" stroke="#b03020" stroke-width="1.5"/>
  <text x="94" y="338" text-anchor="middle" font-size="11" fill="#b03020" transform="rotate(-90,94,338)">3,27 m (vasak räästas)</text>

  <!-- Ridge height -->
  <line x1="930" y1="121" x2="930" y2="470" stroke="#444" stroke-width="1"/>
  <line x1="923" y1="121" x2="937" y2="121" stroke="#444" stroke-width="1.5"/>
  <line x1="923" y1="470" x2="937" y2="470" stroke="#444" stroke-width="1.5"/>
  <text x="948" y="298" text-anchor="middle" font-size="10" fill="#444" transform="rotate(90,948,298)">4,25 m (harjakõrgus)</text>

  <!-- Roof band height on left side (0.98m) -->
  <line x1="136" y1="121" x2="136" y2="202" stroke="#b03020" stroke-width="1" stroke-dasharray="3,2"/>
  <line x1="129" y1="121" x2="143" y2="121" stroke="#b03020" stroke-width="1.5"/>
  <line x1="129" y1="202" x2="143" y2="202" stroke="#b03020" stroke-width="1.5"/>
  <text x="120" y="165" text-anchor="middle" font-size="9" fill="#b03020" transform="rotate(-90,120,165)">0,98 m</text>

  <!-- Field spacings -->
  <line x1="172" y1="548" x2="869" y2="548" stroke="#666" stroke-width="0.8"/>
  <line x1="172" y1="541" x2="172" y2="555" stroke="#666" stroke-width="1"/>
  <line x1="188" y1="541" x2="188" y2="555" stroke="#666" stroke-width="1"/>
  <line x1="404" y1="541" x2="404" y2="555" stroke="#666" stroke-width="1"/>
  <line x1="420" y1="541" x2="420" y2="555" stroke="#666" stroke-width="1"/>
  <line x1="637" y1="541" x2="637" y2="555" stroke="#666" stroke-width="1"/>
  <line x1="653" y1="541" x2="653" y2="555" stroke="#666" stroke-width="1"/>
  <line x1="853" y1="541" x2="853" y2="555" stroke="#666" stroke-width="1"/>
  <line x1="869" y1="541" x2="869" y2="555" stroke="#666" stroke-width="1"/>
  <text x="180" y="568" text-anchor="middle" font-size="9" fill="#8B6914">0,15</text>
  <text x="412" y="568" text-anchor="middle" font-size="9" fill="#8B6914">0,15</text>
  <text x="645" y="568" text-anchor="middle" font-size="9" fill="#8B6914">0,15</text>
  <text x="861" y="568" text-anchor="middle" font-size="9" fill="#8B6914">0,15</text>
  <text x="296" y="568" text-anchor="middle" font-size="10" fill="#666">2,63 m</text>
  <text x="528" y="568" text-anchor="middle" font-size="10" fill="#666">2,63 m</text>
  <text x="753" y="568" text-anchor="middle" font-size="10" fill="#666">2,63 m</text>
  <text x="520" y="585" text-anchor="middle" font-size="9" fill="#888">4 × 0,15 m + 3 × 2,63 m = 8,50 m</text>

  <!-- Labels -->
  <text x="180" y="600" text-anchor="middle" font-size="11" fill="#555">esikülg</text>
  <text x="860" y="600" text-anchor="middle" font-size="11" fill="#555">tagakülg</text>

  <!-- Alt.2 badge -->
  <rect x="8" y="14" width="122" height="40" rx="6" fill="#b03020"/>
  <text x="69" y="30" text-anchor="middle" font-size="11" font-weight="bold" fill="white">ALTERNATIIV 2</text>
  <text x="69" y="47" text-anchor="middle" font-size="9" fill="#ffd0c0">Asymmetriline katus</text>

  <!-- Border -->
  <rect x="8" y="8" width="984" height="624" fill="none" stroke="#aaa" stroke-width="1.5"/>

</svg>
