<svg xmlns="http://www.w3.org/2000/svg" viewBox="0 0 1000 620" width="1000" height="620" font-family="Arial, sans-serif">

  <!-- Background -->
  <rect width="1000" height="620" fill="#f5f2ed"/>

  <!-- Title -->
  <text x="500" y="30" text-anchor="middle" font-size="17" font-weight="bold" fill="#222">VARJUALUNE – KÜLGVAADE</text>
  <text x="500" y="48" text-anchor="middle" font-size="11" fill="#555">Pikkus 8,50 m | Räästakõrgus 3,30 m | Kõrgus 4,74 m | Katuse kalle 21° | Katuse üleulatumine 0,30 m | Puit + Eterniit (katus)</text>

  <!--
    Scale: 1m = 82px. Ground y=470.
    Traufe:  3,30m = 271px → y=199
    First:   4,74m = 389px → y=81
    Otspalk: 3,80m = 312px → y=158

    8,50m = 697px from outer left of front post to outer right of rear post:
      Front post: outer left x=172, w=16, outer right x=188
      Rear post:  outer right x=172+697=869, w=16, outer left x=853
      Mid post 2: center at 172+232=404, w=16
      Mid post 3: center at 172+465=637, w=16

    Overhang 0,30m=25px:
      front: x=147, rear: x=894
  -->

  <!-- Ground -->
  <rect x="100" y="470" width="840" height="15" fill="#c8b89a"/>
  <line x1="100" y1="470" x2="940" y2="470" stroke="#888" stroke-width="1.5"/>

  <!-- === POSTS === -->
  <rect x="172" y="199" width="16" height="271" fill="#8B6914" stroke="#5a4010" stroke-width="1.5"/>
  <rect x="404" y="199" width="16" height="271" fill="#8B6914" stroke="#5a4010" stroke-width="1.2"/>
  <rect x="637" y="199" width="16" height="271" fill="#8B6914" stroke="#5a4010" stroke-width="1.2"/>
  <rect x="853" y="199" width="16" height="271" fill="#8B6914" stroke="#5a4010" stroke-width="1.5"/>

  <!-- === TRAUF BEAM === -->
  <rect x="172" y="194" width="697" height="9" fill="#a07820" stroke="#5a4010" stroke-width="1"/>

  <!-- === STIRNBALKEN (otsapalk) vorne === -->
  <rect x="164" y="158" width="32" height="41" fill="#c08828" stroke="#7a5010" stroke-width="1.5"/>
  <text x="180" y="152" text-anchor="middle" font-size="9" fill="#7a5010">otsapalk 3,80 m</text>

  <!-- === ROOF: x=147 to x=894 === -->
  <rect x="147" y="81" width="747" height="118" fill="#b03020" stroke="#7a1a08" stroke-width="1.5"/>
  <line x1="147" y1="81" x2="894" y2="81" stroke="#7a1a08" stroke-width="2"/>

  <!-- === DIMENSION LINES === -->

  <!-- 8,50m outer to outer -->
  <line x1="172" y1="510" x2="869" y2="510" stroke="#333" stroke-width="1"/>
  <line x1="172" y1="503" x2="172" y2="517" stroke="#333" stroke-width="1.5"/>
  <line x1="869" y1="503" x2="869" y2="517" stroke="#333" stroke-width="1.5"/>
  <text x="520" y="527" text-anchor="middle" font-size="12" font-weight="bold" fill="#333">8,50 m (välisküljest välisküljeni)</text>

  <!-- Total with overhang -->
  <line x1="147" y1="490" x2="894" y2="490" stroke="#555" stroke-width="1"/>
  <line x1="147" y1="483" x2="147" y2="497" stroke="#555" stroke-width="1.5"/>
  <line x1="894" y1="483" x2="894" y2="497" stroke="#555" stroke-width="1.5"/>
  <text x="520" y="507" text-anchor="middle" font-size="11" fill="#555">ca. 9,10 m (koos üleulatumisega)</text>

  <!-- Overhang front -->
  <line x1="147" y1="455" x2="172" y2="455" stroke="#888" stroke-width="0.8"/>
  <line x1="147" y1="449" x2="147" y2="461" stroke="#888" stroke-width="1"/>
  <line x1="172" y1="449" x2="172" y2="461" stroke="#888" stroke-width="1"/>
  <text x="159" y="447" text-anchor="middle" font-size="9" fill="#888">0,30 m</text>

  <!-- Overhang rear -->
  <line x1="869" y1="455" x2="894" y2="455" stroke="#888" stroke-width="0.8"/>
  <line x1="869" y1="449" x2="869" y2="461" stroke="#888" stroke-width="1"/>
  <line x1="894" y1="449" x2="894" y2="461" stroke="#888" stroke-width="1"/>
  <text x="881" y="447" text-anchor="middle" font-size="9" fill="#888">0,30 m</text>

  <!-- Räästakõrgus -->
  <line x1="108" y1="199" x2="108" y2="470" stroke="#333" stroke-width="1"/>
  <line x1="101" y1="199" x2="115" y2="199" stroke="#333" stroke-width="1.5"/>
  <line x1="101" y1="470" x2="115" y2="470" stroke="#333" stroke-width="1.5"/>
  <text x="94" y="338" text-anchor="middle" font-size="11" fill="#333" transform="rotate(-90,94,338)">3,30 m (räästas)</text>

  <!-- Kõrgus -->
  <line x1="930" y1="81" x2="930" y2="470" stroke="#333" stroke-width="1"/>
  <line x1="923" y1="81" x2="937" y2="81" stroke="#333" stroke-width="1.5"/>
  <line x1="923" y1="470" x2="937" y2="470" stroke="#333" stroke-width="1.5"/>
  <text x="948" y="279" text-anchor="middle" font-size="11" fill="#333" transform="rotate(90,948,279)"></text>

  <!-- Otspalk height -->
  <line x1="136" y1="158" x2="136" y2="470" stroke="#7a5010" stroke-width="1" stroke-dasharray="3,2"/>
  <line x1="129" y1="158" x2="143" y2="158" stroke="#7a5010" stroke-width="1.5"/>
  <line x1="129" y1="470" x2="143" y2="470" stroke="#7a5010" stroke-width="1.5"/>
  <text x="122" y="317" text-anchor="middle" font-size="10" fill="#7a5010" transform="rotate(-90,122,317)">3,80 m (otsapalk)</text>

  <!-- Field spacing with post widths -->
  <line x1="172" y1="548" x2="869" y2="548" stroke="#666" stroke-width="0.8"/>
  <line x1="172" y1="541" x2="172" y2="555" stroke="#666" stroke-width="1"/>
  <line x1="188" y1="541" x2="188" y2="555" stroke="#666" stroke-width="1"/>
  <line x1="404" y1="541" x2="404" y2="555" stroke="#666" stroke-width="1"/>
  <line x1="420" y1="541" x2="420" y2="555" stroke="#666" stroke-width="1"/>
  <line x1="637" y1="541" x2="637" y2="555" stroke="#666" stroke-width="1"/>
  <line x1="653" y1="541" x2="653" y2="555" stroke="#666" stroke-width="1"/>
  <line x1="853" y1="541" x2="853" y2="555" stroke="#666" stroke-width="1"/>
  <line x1="869" y1="541" x2="869" y2="555" stroke="#666" stroke-width="1"/>
  <!-- Post widths -->
  <text x="180" y="568" text-anchor="middle" font-size="9" fill="#8B6914">0,15</text>
  <text x="412" y="568" text-anchor="middle" font-size="9" fill="#8B6914">0,15</text>
  <text x="645" y="568" text-anchor="middle" font-size="9" fill="#8B6914">0,15</text>
  <text x="861" y="568" text-anchor="middle" font-size="9" fill="#8B6914">0,15</text>
  <!-- Field widths -->
  <text x="296" y="568" text-anchor="middle" font-size="10" fill="#666">2,63 m</text>
  <text x="528" y="568" text-anchor="middle" font-size="10" fill="#666">2,63 m</text>
  <text x="753" y="568" text-anchor="middle" font-size="10" fill="#666">2,63 m</text>
  <!-- Total annotation -->
  <text x="520" y="585" text-anchor="middle" font-size="9" fill="#888">4 × 0,15 m + 3 × 2,63 m = 8,50 m</text>

  <!-- Front/rear labels -->
  <text x="180" y="590" text-anchor="middle" font-size="11" fill="#555">esikülg</text>
  <text x="860" y="590" text-anchor="middle" font-size="11" fill="#555">tagakülg</text>

  <!-- Border -->
  <rect x="8" y="8" width="984" height="604" fill="none" stroke="#aaa" stroke-width="1.5"/>

</svg>
