<svg xmlns="http://www.w3.org/2000/svg" viewBox="0 0 1000 640" width="1000" height="640" font-family="Arial, sans-serif">

  <!-- Background -->
  <rect width="1000" height="640" fill="#f5f2ed"/>

  <!-- Title -->
  <text x="473" y="30" text-anchor="middle" font-size="17" font-weight="bold" fill="#222">VARJUALUNE – TAGAVAADE</text>
  <text x="473" y="48" text-anchor="middle" font-size="11" fill="#555">Valguslaius 7,50 m | Räästakõrgus 3,30 m | Kõrgus 4,74 m | Katuse kalle 21° | Puit + Eterniit (katus)</text>

  <!--
    Scale: 1m = 82px. Ground y=490.
    Traufe: 3,30m = 271px → y=219
    First:  4,74m = 389px → y=101
    Posts outer left x=150 w=16, inner x=166
    Posts outer right inner x=781, outer x=797
    Middle posts: x=354 w=13 (inner left=354, inner right=367), x=604 w=13 (inner left=604, inner right=617)
    Kopfbänder: 80cm=66px below traufe → y=285
  -->

  <!-- Ground -->
  <rect x="8" y="490" width="984" height="15" fill="#c8b89a"/>
  <line x1="8" y1="490" x2="992" y2="490" stroke="#888" stroke-width="1.5"/>

  <!-- === POSTS === -->
  <rect x="150" y="219" width="16" height="271" fill="#8B6914" stroke="#5a4010" stroke-width="1.5"/>
  <rect x="781" y="219" width="16" height="271" fill="#8B6914" stroke="#5a4010" stroke-width="1.5"/>
  <rect x="354" y="219" width="13" height="271" fill="#8B6914" stroke="#5a4010" stroke-width="1.2"/>
  <rect x="604" y="219" width="13" height="271" fill="#8B6914" stroke="#5a4010" stroke-width="1.2"/>

  <!-- === ROOF === -->
  <polygon points="125,229 150,219 473,101 473,91 125,219" fill="#b03020" stroke="#7a1a08" stroke-width="1.5"/>
  <polygon points="473,101 797,219 822,229 822,219 473,91" fill="#952818" stroke="#7a1a08" stroke-width="1.5"/>
  <rect x="467" y="91" width="12" height="13" fill="#7a1a08"/>
  <!-- Trauf beam -->
  <rect x="150" y="214" width="647" height="8" fill="#a07820" stroke="#5a4010" stroke-width="1"/>
  <!-- Overhang dimensions -->
  <line x1="125" y1="248" x2="150" y2="248" stroke="#888" stroke-width="0.8"/>
  <line x1="125" y1="243" x2="125" y2="253" stroke="#888" stroke-width="1"/>
  <line x1="150" y1="243" x2="150" y2="253" stroke="#888" stroke-width="1"/>
  <text x="137" y="264" text-anchor="middle" font-size="9" fill="#888">0,30 m</text>
  <line x1="797" y1="248" x2="822" y2="248" stroke="#888" stroke-width="0.8"/>
  <line x1="797" y1="243" x2="797" y2="253" stroke="#888" stroke-width="1"/>
  <line x1="822" y1="243" x2="822" y2="253" stroke="#888" stroke-width="1"/>
  <text x="809" y="264" text-anchor="middle" font-size="9" fill="#888">0,30 m</text>

  <!-- === KOPFBÄNDER (45°, 80cm=66px, Ansatz y=285) ===
    Außen links: Innenseite x=166 → nach rechts x=232, y=219
    Außen rechts: Innenseite x=781 → nach links x=715, y=219
    Mitte1 links (x=354) → nach links x=288, y=219
    Mitte1 rechts (x=367) → nach rechts x=433, y=219
    Mitte2 links (x=604) → nach links x=538, y=219
    Mitte2 rechts (x=617) → nach rechts x=683, y=219
  -->
  <line x1="166" y1="285" x2="232" y2="219" stroke="#7a5028" stroke-width="10" stroke-linecap="round"/>
  <line x1="781" y1="285" x2="715" y2="219" stroke="#7a5028" stroke-width="10" stroke-linecap="round"/>
  <line x1="354" y1="285" x2="288" y2="219" stroke="#7a5028" stroke-width="10" stroke-linecap="round"/>
  <line x1="367" y1="285" x2="433" y2="219" stroke="#7a5028" stroke-width="10" stroke-linecap="round"/>
  <line x1="604" y1="285" x2="538" y2="219" stroke="#7a5028" stroke-width="10" stroke-linecap="round"/>
  <line x1="617" y1="285" x2="683" y2="219" stroke="#7a5028" stroke-width="10" stroke-linecap="round"/>

  <!-- === DIMENSION LINES === -->
  <!-- Outer width -->
  <line x1="150" y1="535" x2="797" y2="535" stroke="#333" stroke-width="1"/>
  <line x1="150" y1="528" x2="150" y2="542" stroke="#333" stroke-width="1.5"/>
  <line x1="797" y1="528" x2="797" y2="542" stroke="#333" stroke-width="1.5"/>
  <text x="473" y="552" text-anchor="middle" font-size="12" font-weight="bold" fill="#333">ca. 7,80 m (välismõõt)</text>

  <!-- Inner clear width -->
  <line x1="166" y1="515" x2="781" y2="515" stroke="#555" stroke-width="1"/>
  <line x1="166" y1="508" x2="166" y2="522" stroke="#555" stroke-width="1.5"/>
  <line x1="781" y1="508" x2="781" y2="522" stroke="#555" stroke-width="1.5"/>
  <text x="473" y="530" text-anchor="middle" font-size="11" fill="#555">7,50 m (valguslaius)</text>

  <!-- Räästakõrgus -->
  <line x1="108" y1="219" x2="108" y2="490" stroke="#333" stroke-width="1"/>
  <line x1="101" y1="219" x2="115" y2="219" stroke="#333" stroke-width="1.5"/>
  <line x1="101" y1="490" x2="115" y2="490" stroke="#333" stroke-width="1.5"/>
  <text x="94" y="358" text-anchor="middle" font-size="11" fill="#333" transform="rotate(-90,94,358)">3,30 m (räästas)</text>

  <!-- Kõrgus -->
  <line x1="860" y1="101" x2="860" y2="490" stroke="#333" stroke-width="1"/>
  <line x1="853" y1="101" x2="867" y2="101" stroke="#333" stroke-width="1.5"/>
  <line x1="853" y1="490" x2="867" y2="490" stroke="#333" stroke-width="1.5"/>
  <text x="878" y="299" text-anchor="middle" font-size="9" fill="#333" transform="rotate(90,878,299)">4,74 m</text>

  <!-- Border -->
  <rect x="8" y="8" width="984" height="624" fill="none" stroke="#aaa" stroke-width="1.5"/>

</svg>
